<svg width="60" height="60" viewBox="0 0 60 60" fill="none" xmlns="http://www.w3.org/2000/svg">
<path d="M18.1752 25.0246C16.0652 22.4304 14.0844 21.8733 12.2327 23.3533C9.45399 25.5733 8.65649 33.3133 10.8915 40.1383C13.1265 46.9633 17.4752 56.2546 26.2527 56.2546C35.0302 56.2546 37.1052 46.9033 40.6852 41.2508C44.2665 35.5983 46.1602 30.1446 42.6515 23.3533" stroke="white" stroke-width="2" stroke-linecap="round" stroke-linejoin="round"/>
<path d="M13.7501 22.5489C12.0976 20.0241 10.4309 17.5087 8.7501 15.0027C6.9426 12.3214 11.5638 8.85518 13.7501 11.2127C15.2076 12.7852 17.1438 15.1006 19.5588 18.1589" stroke="white" stroke-width="2" stroke-linecap="round"/>
<path d="M18.7799 32.0541C18.1741 24.4741 18.6666 19.5386 20.2574 17.2478C22.6449 13.8103 27.0787 12.5078 31.2549 12.5078C33.7408 12.5078 36.0108 13.5666 38.0649 15.6841" stroke="white" stroke-width="2" stroke-linecap="round" stroke-linejoin="round"/>
<path d="M51.2498 15.7678C51.9823 18.3128 50.7873 20.639 47.1048 21.1653C43.4223 21.6915 40.6636 23.5428 38.6736 25.1003C36.6836 26.6578 33.1236 31.3828 32.4198 33.754C31.7161 36.1253 27.6998 33.9453 26.6211 32.9978C25.5423 32.0515 24.4811 29.9778 26.6211 27.809C28.7611 25.6403 28.2973 25.2078 28.2973 23.009C28.2973 20.809 39.9998 13.534 46.591 12.869C48.056 12.784 50.5186 13.2215 51.2498 15.7678Z" stroke="white" stroke-width="2"/>
<path d="M28.761 5.00063V11.5794M25.3848 13.3981C21.6123 8.65646 18.5706 6.01062 16.2598 5.46063M21.256 8.78687L22.4935 3.70312M44.5173 13.3981C44.1148 14.7781 44.1148 16.0723 44.5173 17.2806C44.9206 18.489 45.7835 19.7835 47.106 21.1644" stroke="white" stroke-width="2" stroke-linecap="round"/>
</svg>
